<?xml version="1.0" standalone="no"?>
<!DOCTYPE svg PUBLIC "-//W3C//DTD SVG 20010904//EN"
 "http://www.w3.org/TR/2001/REC-SVG-20010904/DTD/svg10.dtd">
<svg version="1.0" xmlns="http://www.w3.org/2000/svg"
 width="1280.000000pt" height="758.000000pt" viewBox="0 0 1280.000000 758.000000"
 preserveAspectRatio="xMidYMid meet">

<g transform="translate(0.000000,758.000000) scale(0.100000,-0.100000)"
fill="#000000" stroke="none">
<path d="M6040 6604 c-102 -36 -247 -180 -486 -484 -200 -254 -252 -327 -484
-672 -118 -175 -131 -191 -235 -280 -175 -149 -564 -464 -706 -573 -466 -357
-818 -600 -1209 -837 -154 -93 -514 -306 -555 -329 -17 -9 -53 -31 -80 -48
-27 -17 -50 -30 -51 -28 -1 1 36 81 83 177 115 235 176 370 300 660 57 135
145 326 194 425 l91 180 117 120 c408 416 639 737 555 769 -29 11 -101 -33
-157 -97 -155 -178 -327 -414 -456 -626 -92 -152 -152 -212 -486 -491 -356
-298 -806 -620 -866 -620 -23 0 -95 -35 -104 -51 -4 -6 -3 -15 3 -21 56 -56
660 370 1201 845 61 54 111 96 111 93 0 -3 -34 -73 -75 -155 -41 -83 -75 -153
-75 -156 0 -5 -73 -174 -208 -480 -117 -266 -289 -608 -312 -623 -46 -28 -352
-202 -470 -267 -449 -246 -678 -398 -794 -526 -54 -60 -56 -64 -56 -118 0 -31
6 -67 13 -81 32 -63 153 -120 256 -120 66 0 190 46 278 102 144 94 334 273
464 438 71 90 219 317 289 442 54 96 72 120 105 139 82 46 778 461 852 507
521 327 1064 730 1706 1267 37 31 67 54 67 50 0 -3 -17 -32 -38 -63 -80 -118
-352 -552 -412 -657 -9 -16 -32 -55 -50 -85 -225 -380 -485 -884 -584 -1130
-228 -573 -207 -776 71 -691 96 29 192 85 538 315 515 343 797 483 1089 542
124 26 336 15 441 -21 96 -33 186 -89 280 -176 136 -125 229 -180 346 -204 97
-21 271 -19 404 4 61 10 164 28 230 40 333 58 296 56 1185 56 1084 1 1082 1
2385 180 267 37 401 54 865 110 162 20 325 45 361 55 70 21 119 52 119 76 0
16 -26 19 -35 4 -13 -20 -81 -47 -150 -58 -75 -13 -592 -79 -865 -112 -91 -11
-275 -35 -410 -55 -351 -50 -935 -122 -1145 -140 -369 -31 -626 -36 -1137 -24
-378 9 -530 9 -685 0 -218 -13 -473 -47 -658 -86 -159 -34 -334 -43 -435 -21
-104 22 -202 73 -293 153 -187 163 -244 200 -382 243 -87 27 -256 37 -375 22
-119 -15 -361 -97 -521 -178 -219 -109 -299 -157 -613 -366 -343 -229 -463
-300 -559 -329 -82 -25 -129 -20 -154 17 -37 56 -5 247 78 474 23 63 53 147
67 185 41 113 282 581 477 930 140 249 314 534 551 900 l123 190 138 120 c328
285 688 675 923 998 124 170 152 246 97 261 -30 8 -36 7 -87 -10z m74 -46
c-26 -83 -250 -378 -488 -643 -151 -167 -539 -545 -560 -545 -9 0 204 313 323
475 103 141 252 330 366 465 137 162 272 270 338 270 25 0 27 -3 21 -22z
m-2554 -916 c0 -12 -108 -183 -145 -229 -16 -20 -52 -64 -78 -97 -67 -84 -328
-368 -334 -363 -19 20 427 618 504 676 29 21 53 27 53 13z m-1482 -2489 c-138
-241 -284 -438 -438 -593 -186 -187 -328 -283 -478 -325 -58 -17 -67 -17 -128
-1 -112 27 -156 64 -169 141 -5 35 -2 46 24 82 88 121 307 268 866 579 77 42
189 106 250 141 60 35 113 63 117 63 3 0 -16 -39 -44 -87z"/>
</g>
</svg>
